<?xml version="1.0" encoding="UTF-8" standalone="no"?>
<!-- Created with Inkscape (http://www.inkscape.org/) -->

<svg
   xmlns:dc="http://purl.org/dc/elements/1.1/"
   xmlns:cc="http://creativecommons.org/ns#"
   xmlns:rdf="http://www.w3.org/1999/02/22-rdf-syntax-ns#"
   xmlns:svg="http://www.w3.org/2000/svg"
   xmlns="http://www.w3.org/2000/svg"
   xmlns:sodipodi="http://sodipodi.sourceforge.net/DTD/sodipodi-0.dtd"
   xmlns:inkscape="http://www.inkscape.org/namespaces/inkscape"
   width="300"
   height="300"
   id="svg3038"
   version="1.1"
   inkscape:version="0.48.1 "
   sodipodi:docname="121214_FreifunkFranken_Logo_WithLabel.svg">
  <defs
     id="defs3040" />
  <sodipodi:namedview
     id="base"
     pagecolor="#ffffff"
     bordercolor="#666666"
     borderopacity="1.0"
     inkscape:pageopacity="0.0"
     inkscape:pageshadow="2"
     inkscape:zoom="1.4"
     inkscape:cx="93.666955"
     inkscape:cy="138.67168"
     inkscape:document-units="px"
     inkscape:current-layer="layer1"
     showgrid="true"
     inkscape:window-width="1440"
     inkscape:window-height="878"
     inkscape:window-x="-8"
     inkscape:window-y="-8"
     inkscape:window-maximized="1"
     inkscape:snap-page="false">
    <inkscape:grid
       type="xygrid"
       id="grid3053" />
  </sodipodi:namedview>
  <metadata
     id="metadata3043">
    <rdf:RDF>
      <cc:Work
         rdf:about="">
        <dc:format>image/svg+xml</dc:format>
        <dc:type
           rdf:resource="http://purl.org/dc/dcmitype/StillImage" />
        <dc:title></dc:title>
      </cc:Work>
    </rdf:RDF>
  </metadata>
  <g
     inkscape:label="Ebene 1"
     inkscape:groupmode="layer"
     id="layer1"
     transform="translate(0,-752.36218)">
    <g
       id="g3974"
       transform="matrix(1.845934,0,0,1.7961352,-19.680185,-629.11965)">
      <g
         transform="matrix(1.44,0,0,1.44,-80.648169,344.93833)"
         id="g3117">
        <circle
           d="M 58,54 C 58,66.150264 48.150264,76 36,76 23.849736,76 14,66.150264 14,54 14,41.849736 23.849736,32 36,32 c 12.150264,0 22,9.849736 22,22 z"
           style="fill:none;stroke:#dd0066;stroke-width:1px"
           sodipodi:ry="22"
           sodipodi:rx="22"
           sodipodi:cy="54"
           sodipodi:cx="36"
           cx="36"
           cy="54"
           r="22"
           id="circle3048"
           transform="translate(59.258859,316.23328)" />
        <circle
           d="M 96,44 C 96,56.150264 86.150264,66 74,66 61.849736,66 52,56.150264 52,44 52,31.849736 61.849736,22 74,22 c 12.150264,0 22,9.849736 22,22 z"
           style="fill:none;stroke:#dd0066;stroke-width:1px"
           sodipodi:ry="22"
           sodipodi:rx="22"
           sodipodi:cy="44"
           sodipodi:cx="74"
           cx="74"
           cy="44"
           r="22"
           id="circle3050"
           transform="translate(59.258859,316.23328)" />
        <circle
           d="M 103,44 C 103,60.016258 90.016258,73 74,73 57.983742,73 45,60.016258 45,44 45,27.983742 57.983742,15 74,15 c 16.016258,0 29,12.983742 29,29 z"
           style="fill:none;stroke:#dd0066;stroke-width:6px"
           sodipodi:ry="29"
           sodipodi:rx="29"
           sodipodi:cy="44"
           sodipodi:cx="74"
           cx="74"
           cy="44"
           r="29"
           id="circle3052"
           transform="translate(59.258859,316.23328)" />
        <polygon
           style="fill:#ffcc00"
           points="26,44 30,48 22,48 22,52 30,52 26,56 31,56 37,50 31,44 "
           id="polygon3054"
           transform="translate(59.258859,316.23328)" />
        <polygon
           style="fill:#ffcc00"
           points="81,41 73,41 64,50 73,59 81,59 75,53 88,53 88,47 75,47 "
           id="polygon3056"
           transform="translate(59.258859,316.23328)" />
        <circle
           d="M 58,54 C 58,66.150264 48.150264,76 36,76 23.849736,76 14,66.150264 14,54 14,41.849736 23.849736,32 36,32 c 12.150264,0 22,9.849736 22,22 z"
           style="fill:none;stroke:#dd0066;stroke-width:1px"
           sodipodi:ry="22"
           sodipodi:rx="22"
           sodipodi:cy="54"
           sodipodi:cx="36"
           cx="36"
           cy="54"
           r="22"
           id="circle3048-0"
           transform="translate(88.107139,266.93362)" />
        <polygon
           style="fill:#ffcc00"
           points="26,44 30,48 22,48 22,52 30,52 26,56 31,56 37,50 31,44 "
           id="polygon3054-9"
           transform="matrix(-0.00905475,0.999959,-0.999959,-0.00905475,181.97934,288.78043)" />
      </g>
    </g>
    <g
       inkscape:transform-center-x="5.019043"
       style="font-size:26px;font-style:normal;font-variant:normal;font-weight:bold;font-stretch:normal;text-align:center;line-height:100%;writing-mode:lr-tb;text-anchor:middle;font-family:Arial;-inkscape-font-specification:Arial Bold"
       id="text2997">
      <path
         d="m 28.861328,1018.8798 1.980469,0 0,-1.0157 c -2e-6,-1.1341 0.120603,-1.9804 0.361816,-2.539 0.241208,-0.5586 0.685544,-1.0135 1.333008,-1.3648 0.647456,-0.3512 1.466303,-0.5268 2.456543,-0.5268 1.015618,0 2.010083,0.1523 2.983398,0.457 l -0.482421,2.4883 c -0.567066,-0.1354 -1.112964,-0.2031 -1.637696,-0.2031 -0.516283,0 -0.886562,0.1206 -1.11084,0.3618 -0.224289,0.2412 -0.336431,0.7046 -0.336425,1.3901 l 0,0.9522 2.666015,0 0,2.8056 -2.666015,0 0,10.6768 -3.567383,0 0,-10.6768 -1.980469,0 z"
         style="font-size:26px;font-style:normal;font-variant:normal;font-weight:bold;font-stretch:normal;text-align:center;line-height:100%;writing-mode:lr-tb;text-anchor:middle;font-family:Arial;-inkscape-font-specification:Arial Bold"
         id="path3056" />
      <path
         d="m 42.521484,1032.3622 -3.567382,0 0,-13.4824 3.313476,0 0,1.917 c 0.567052,-0.9056 1.07698,-1.5023 1.529785,-1.7901 0.452793,-0.2877 0.966952,-0.4316 1.542481,-0.4316 0.812491,0 1.595368,0.2243 2.348633,0.6728 l -1.104493,3.1104 c -0.60092,-0.3893 -1.159513,-0.584 -1.675781,-0.584 -0.499356,0 -0.922533,0.1375 -1.269531,0.4126 -0.347011,0.2751 -0.61996,0.7723 -0.818848,1.4917 -0.198898,0.7194 -0.298345,2.2259 -0.29834,4.5195 z"
         style="font-size:26px;font-style:normal;font-variant:normal;font-weight:bold;font-stretch:normal;text-align:center;line-height:100%;writing-mode:lr-tb;text-anchor:middle;font-family:Arial;-inkscape-font-specification:Arial Bold"
         id="path3058" />
      <path
         d="m 51.87793,1022.993 -3.237305,-0.5839 c 0.363931,-1.3034 0.990232,-2.2683 1.878906,-2.8946 0.888668,-0.6263 2.208979,-0.9394 3.960938,-0.9394 1.591137,0 2.776032,0.1883 3.554687,0.5649 0.778635,0.3767 1.326648,0.8548 1.644043,1.4346 0.31737,0.5797 0.476062,1.644 0.476074,3.1929 l -0.03809,4.164 c -1.2e-5,1.1849 0.05712,2.0588 0.171387,2.6216 0.114245,0.5628 0.327949,1.1659 0.641113,1.8091 l -3.529296,0 c -0.09311,-0.237 -0.207367,-0.5882 -0.342774,-1.0537 -0.05925,-0.2116 -0.101572,-0.3513 -0.126953,-0.419 -0.609384,0.5925 -1.261076,1.0368 -1.955078,1.333 -0.694017,0.2963 -1.434577,0.4444 -2.22168,0.4444 -1.388025,0 -2.481936,-0.3767 -3.281738,-1.1299 -0.799806,-0.7533 -1.199708,-1.7054 -1.199707,-2.8565 -10e-7,-0.7617 0.181965,-1.4409 0.545898,-2.0376 0.363931,-0.5966 0.873859,-1.0537 1.529786,-1.371 0.65592,-0.3174 1.60172,-0.5946 2.837402,-0.8316 1.66731,-0.3131 2.822582,-0.6051 3.46582,-0.876 l 0,-0.3554 c -9e-6,-0.6856 -0.16928,-1.1743 -0.507812,-1.4663 -0.33855,-0.292 -0.977547,-0.438 -1.916993,-0.438 -0.634771,0 -1.129888,0.1248 -1.485351,0.3745 -0.355474,0.2497 -0.643234,0.6876 -0.863281,1.3139 z m 4.773437,2.8946 c -0.45704,0.1523 -1.180672,0.3343 -2.170898,0.5459 -0.990241,0.2116 -1.637701,0.4189 -1.942383,0.622 -0.4655,0.3301 -0.698247,0.7491 -0.698242,1.2569 -5e-6,0.4993 0.186193,0.931 0.558593,1.2949 0.372391,0.3639 0.846349,0.5459 1.421875,0.5459 0.643223,0 1.256829,-0.2116 1.840821,-0.6348 0.431632,-0.3216 0.71516,-0.7151 0.850586,-1.1806 0.09309,-0.3047 0.139639,-0.8845 0.139648,-1.7393 z"
         style="font-size:26px;font-style:normal;font-variant:normal;font-weight:bold;font-stretch:normal;text-align:center;line-height:100%;writing-mode:lr-tb;text-anchor:middle;font-family:Arial;-inkscape-font-specification:Arial Bold"
         id="path3060" />
      <path
         d="m 75.948242,1032.3622 -3.567383,0 0,-6.8809 c -1e-5,-1.4557 -0.07618,-2.3973 -0.228515,-2.8247 -0.152354,-0.4274 -0.399913,-0.7596 -0.742676,-0.9966 -0.342783,-0.2369 -0.75538,-0.3554 -1.237793,-0.3554 -0.617846,0 -1.172208,0.1692 -1.663086,0.5078 -0.490892,0.3385 -0.827317,0.7871 -1.009277,1.3457 -0.181972,0.5586 -0.272955,1.5911 -0.27295,3.0976 l 0,6.1065 -3.567382,0 0,-13.4824 3.313476,0 0,1.9804 c 1.176426,-1.5234 2.657545,-2.2851 4.44336,-2.2851 0.787099,0 1.506499,0.1418 2.158203,0.4253 0.65168,0.2835 1.144681,0.6453 1.479004,1.0854 0.334296,0.4401 0.567043,0.9395 0.698242,1.4981 0.131171,0.5586 0.196763,1.3584 0.196777,2.3994 z"
         style="font-size:26px;font-style:normal;font-variant:normal;font-weight:bold;font-stretch:normal;text-align:center;line-height:100%;writing-mode:lr-tb;text-anchor:middle;font-family:Arial;-inkscape-font-specification:Arial Bold"
         id="path3062" />
      <path
         d="m 79.452148,1032.3622 0,-18.6113 3.567383,0 0,9.8769 4.176758,-4.748 4.392578,0 -4.608398,4.9257 4.938476,8.5567 -3.846679,0 -3.389649,-6.0557 -1.663086,1.7393 0,4.3164 z"
         style="font-size:26px;font-style:normal;font-variant:normal;font-weight:bold;font-stretch:normal;text-align:center;line-height:100%;writing-mode:lr-tb;text-anchor:middle;font-family:Arial;-inkscape-font-specification:Arial Bold"
         id="path3064" />
      <path
         d="m 101.85938,1028.0712 3.55468,0.5966 c -0.45704,1.3034 -1.17856,2.2958 -2.16455,2.9771 -0.98601,0.6813 -2.21957,1.022 -3.700682,1.022 -2.344406,0 -4.07943,-0.766 -5.205078,-2.2979 -0.888673,-1.2272 -1.333009,-2.776 -1.333008,-4.6465 -10e-7,-2.2343 0.583983,-3.9842 1.751953,-5.2495 1.167965,-1.2653 2.644852,-1.8979 4.430664,-1.8979 2.005851,0 3.588531,0.6623 4.748051,1.9868 1.15949,1.3245 1.71385,3.3537 1.66308,6.0874 l -8.937498,0 c 0.02539,1.0579 0.313146,1.881 0.863281,2.4692 0.550125,0.5882 1.235671,0.8824 2.056641,0.8824 0.558586,0 1.028316,-0.1524 1.409176,-0.4571 0.38085,-0.3047 0.66861,-0.7955 0.86329,-1.4726 z m 0.20312,-3.6055 c -0.0254,-1.0325 -0.292,-1.8175 -0.7998,-2.355 -0.50783,-0.5374 -1.12566,-0.8061 -1.85352,-0.8061 -0.778653,0 -1.421881,0.2835 -1.929688,0.8506 -0.507817,0.567 -0.757491,1.3372 -0.749023,2.3105 z"
         style="font-size:26px;font-style:normal;font-variant:normal;font-weight:bold;font-stretch:normal;text-align:center;line-height:100%;writing-mode:lr-tb;text-anchor:middle;font-family:Arial;-inkscape-font-specification:Arial Bold"
         id="path3066" />
      <path
         d="m 120.78809,1032.3622 -3.56739,0 0,-6.8809 c -10e-6,-1.4557 -0.0762,-2.3973 -0.22851,-2.8247 -0.15236,-0.4274 -0.39991,-0.7596 -0.74268,-0.9966 -0.34278,-0.2369 -0.75538,-0.3554 -1.23779,-0.3554 -0.61785,0 -1.17221,0.1692 -1.66309,0.5078 -0.49089,0.3385 -0.82731,0.7871 -1.00927,1.3457 -0.18198,0.5586 -0.27296,1.5911 -0.27295,3.0976 l 0,6.1065 -3.56739,0 0,-13.4824 3.31348,0 0,1.9804 c 1.17643,-1.5234 2.65754,-2.2851 4.44336,-2.2851 0.7871,0 1.5065,0.1418 2.1582,0.4253 0.65168,0.2835 1.14468,0.6453 1.47901,1.0854 0.33429,0.4401 0.56704,0.9395 0.69824,1.4981 0.13117,0.5586 0.19676,1.3584 0.19678,2.3994 z"
         style="font-size:26px;font-style:normal;font-variant:normal;font-weight:bold;font-stretch:normal;text-align:center;line-height:100%;writing-mode:lr-tb;text-anchor:middle;font-family:Arial;-inkscape-font-specification:Arial Bold"
         id="path3068" />
      <path
         d="m 124.41895,1032.3622 0,-3.5674 3.56738,0 0,3.5674 z"
         style="font-size:26px;font-style:normal;font-variant:normal;font-weight:bold;font-stretch:normal;text-align:center;line-height:100%;writing-mode:lr-tb;text-anchor:middle;font-family:Arial;-inkscape-font-specification:Arial Bold"
         id="path3070" />
      <path
         d="m 130.06836,1018.8798 1.98047,0 0,-1.0157 c 0,-1.1341 0.1206,-1.9804 0.36181,-2.539 0.24121,-0.5586 0.68555,-1.0135 1.33301,-1.3648 0.64746,-0.3512 1.46631,-0.5268 2.45655,-0.5268 1.01561,0 2.01008,0.1523 2.98339,0.457 l -0.48242,2.4883 c -0.56706,-0.1354 -1.11296,-0.2031 -1.63769,-0.2031 -0.51629,0 -0.88657,0.1206 -1.11084,0.3618 -0.22429,0.2412 -0.33643,0.7046 -0.33643,1.3901 l 0,0.9522 2.66602,0 0,2.8056 -2.66602,0 0,10.6768 -3.56738,0 0,-10.6768 -1.98047,0 z"
         style="font-size:26px;font-style:normal;font-variant:normal;font-weight:bold;font-stretch:normal;text-align:center;line-height:100%;writing-mode:lr-tb;text-anchor:middle;font-family:Arial;-inkscape-font-specification:Arial Bold"
         id="path3072" />
      <path
         d="m 143.72852,1032.3622 -3.56739,0 0,-13.4824 3.31348,0 0,1.917 c 0.56705,-0.9056 1.07698,-1.5023 1.52978,-1.7901 0.4528,-0.2877 0.96696,-0.4316 1.54248,-0.4316 0.8125,0 1.59537,0.2243 2.34864,0.6728 l -1.10449,3.1104 c -0.60092,-0.3893 -1.15952,-0.584 -1.67579,-0.584 -0.49935,0 -0.92253,0.1375 -1.26953,0.4126 -0.34701,0.2751 -0.61996,0.7723 -0.81884,1.4917 -0.1989,0.7194 -0.29835,2.2259 -0.29834,4.5195 z"
         style="font-size:26px;font-style:normal;font-variant:normal;font-weight:bold;font-stretch:normal;text-align:center;line-height:100%;writing-mode:lr-tb;text-anchor:middle;font-family:Arial;-inkscape-font-specification:Arial Bold"
         id="path3074" />
      <path
         d="m 158.22656,1028.0712 3.55469,0.5966 c -0.45704,1.3034 -1.17856,2.2958 -2.16455,2.9771 -0.98601,0.6813 -2.21957,1.022 -3.70068,1.022 -2.34441,0 -4.07943,-0.766 -5.20508,-2.2979 -0.88868,-1.2272 -1.33301,-2.776 -1.33301,-4.6465 0,-2.2343 0.58398,-3.9842 1.75195,-5.2495 1.16797,-1.2653 2.64485,-1.8979 4.43067,-1.8979 2.00585,0 3.58853,0.6623 4.74804,1.9868 1.1595,1.3245 1.71386,3.3537 1.66309,6.0874 l -8.9375,0 c 0.0254,1.0579 0.31315,1.881 0.86328,2.4692 0.55013,0.5882 1.23567,0.8824 2.05664,0.8824 0.55859,0 1.02831,-0.1524 1.40918,-0.4571 0.38085,-0.3047 0.66861,-0.7955 0.86328,-1.4726 z m 0.20313,-3.6055 c -0.0254,-1.0325 -0.292,-1.8175 -0.79981,-2.355 -0.50782,-0.5374 -1.12566,-0.8061 -1.85351,-0.8061 -0.77866,0 -1.42188,0.2835 -1.92969,0.8506 -0.50782,0.567 -0.75749,1.3372 -0.74902,2.3105 z"
         style="font-size:26px;font-style:normal;font-variant:normal;font-weight:bold;font-stretch:normal;text-align:center;line-height:100%;writing-mode:lr-tb;text-anchor:middle;font-family:Arial;-inkscape-font-specification:Arial Bold"
         id="path3076" />
      <path
         d="m 164.8916,1017.0516 0,-3.3007 3.56738,0 0,3.3007 z m 0,15.3106 0,-13.4824 3.56738,0 0,13.4824 z"
         style="font-size:26px;font-style:normal;font-variant:normal;font-weight:bold;font-stretch:normal;text-align:center;line-height:100%;writing-mode:lr-tb;text-anchor:middle;font-family:Arial;-inkscape-font-specification:Arial Bold"
         id="path3078" />
      <path
         d="m 170.54102,1018.8798 1.98046,0 0,-1.0157 c 0,-1.1341 0.12061,-1.9804 0.36182,-2.539 0.24121,-0.5586 0.68554,-1.0135 1.33301,-1.3648 0.64745,-0.3512 1.4663,-0.5268 2.45654,-0.5268 1.01562,0 2.01008,0.1523 2.9834,0.457 l -0.48242,2.4883 c -0.56707,-0.1354 -1.11297,-0.2031 -1.6377,-0.2031 -0.51628,0 -0.88656,0.1206 -1.11084,0.3618 -0.22429,0.2412 -0.33643,0.7046 -0.33642,1.3901 l 0,0.9522 2.66601,0 0,2.8056 -2.66601,0 0,10.6768 -3.56739,0 0,-10.6768 -1.98046,0 z"
         style="font-size:26px;font-style:normal;font-variant:normal;font-weight:bold;font-stretch:normal;text-align:center;line-height:100%;writing-mode:lr-tb;text-anchor:middle;font-family:Arial;-inkscape-font-specification:Arial Bold"
         id="path3080" />
      <path
         d="m 189.66016,1032.3622 0,-2.0186 c -0.4909,0.7194 -1.13624,1.2865 -1.93604,1.7012 -0.79981,0.4147 -1.64405,0.6221 -2.53271,0.6221 -0.90561,0 -1.71811,-0.1989 -2.4375,-0.5967 -0.71941,-0.3978 -1.23992,-0.9564 -1.56153,-1.6758 -0.32161,-0.7194 -0.48242,-1.7139 -0.48242,-2.9834 l 0,-8.5312 3.56738,0 0,6.1953 c 0,1.8958 0.0656,3.0574 0.19678,3.4848 0.13118,0.4274 0.37028,0.766 0.71729,1.0157 0.34699,0.2496 0.7871,0.3745 1.32031,0.3745 0.60937,0 1.15526,-0.1672 1.63769,-0.5015 0.48242,-0.3343 0.81249,-0.749 0.99024,-1.2441 0.17772,-0.4951 0.26659,-1.7075 0.2666,-3.6372 l 0,-5.6875 3.56738,0 0,13.4824 z"
         style="font-size:26px;font-style:normal;font-variant:normal;font-weight:bold;font-stretch:normal;text-align:center;line-height:100%;writing-mode:lr-tb;text-anchor:middle;font-family:Arial;-inkscape-font-specification:Arial Bold"
         id="path3082" />
      <path
         d="m 208.94434,1032.3622 -3.56739,0 0,-6.8809 c -1e-5,-1.4557 -0.0762,-2.3973 -0.22851,-2.8247 -0.15236,-0.4274 -0.39991,-0.7596 -0.74268,-0.9966 -0.34278,-0.2369 -0.75538,-0.3554 -1.23779,-0.3554 -0.61785,0 -1.17221,0.1692 -1.66309,0.5078 -0.49089,0.3385 -0.82731,0.7871 -1.00927,1.3457 -0.18198,0.5586 -0.27296,1.5911 -0.27295,3.0976 l 0,6.1065 -3.56739,0 0,-13.4824 3.31348,0 0,1.9804 c 1.17643,-1.5234 2.65754,-2.2851 4.44336,-2.2851 0.7871,0 1.5065,0.1418 2.1582,0.4253 0.65168,0.2835 1.14468,0.6453 1.47901,1.0854 0.33429,0.4401 0.56704,0.9395 0.69824,1.4981 0.13117,0.5586 0.19676,1.3584 0.19678,2.3994 z"
         style="font-size:26px;font-style:normal;font-variant:normal;font-weight:bold;font-stretch:normal;text-align:center;line-height:100%;writing-mode:lr-tb;text-anchor:middle;font-family:Arial;-inkscape-font-specification:Arial Bold"
         id="path3084" />
      <path
         d="m 212.44824,1032.3622 0,-18.6113 3.56738,0 0,9.8769 4.17676,-4.748 4.39258,0 -4.6084,4.9257 4.93848,8.5567 -3.84668,0 -3.38965,-6.0557 -1.66309,1.7393 0,4.3164 z"
         style="font-size:26px;font-style:normal;font-variant:normal;font-weight:bold;font-stretch:normal;text-align:center;line-height:100%;writing-mode:lr-tb;text-anchor:middle;font-family:Arial;-inkscape-font-specification:Arial Bold"
         id="path3086" />
      <path
         d="m 227.04785,1032.3622 0,-3.5674 3.56738,0 0,3.5674 z"
         style="font-size:26px;font-style:normal;font-variant:normal;font-weight:bold;font-stretch:normal;text-align:center;line-height:100%;writing-mode:lr-tb;text-anchor:middle;font-family:Arial;-inkscape-font-specification:Arial Bold"
         id="path3088" />
      <path
         d="m 246.52246,1032.3622 -3.56738,0 0,-6.8809 c -1e-5,-1.4557 -0.0762,-2.3973 -0.22852,-2.8247 -0.15235,-0.4274 -0.39991,-0.7596 -0.74267,-0.9966 -0.34279,-0.2369 -0.75538,-0.3554 -1.2378,-0.3554 -0.61784,0 -1.1722,0.1692 -1.66308,0.5078 -0.49089,0.3385 -0.82732,0.7871 -1.00928,1.3457 -0.18197,0.5586 -0.27295,1.5911 -0.27295,3.0976 l 0,6.1065 -3.56738,0 0,-13.4824 3.31347,0 0,1.9804 c 1.17643,-1.5234 2.65755,-2.2851 4.44336,-2.2851 0.7871,0 1.5065,0.1418 2.15821,0.4253 0.65168,0.2835 1.14468,0.6453 1.479,1.0854 0.3343,0.4401 0.56704,0.9395 0.69824,1.4981 0.13117,0.5586 0.19677,1.3584 0.19678,2.3994 z"
         style="font-size:26px;font-style:normal;font-variant:normal;font-weight:bold;font-stretch:normal;text-align:center;line-height:100%;writing-mode:lr-tb;text-anchor:middle;font-family:Arial;-inkscape-font-specification:Arial Bold"
         id="path3090" />
      <path
         d="m 257.96094,1028.0712 3.55468,0.5966 c -0.45704,1.3034 -1.17856,2.2958 -2.16455,2.9771 -0.98601,0.6813 -2.21957,1.022 -3.70068,1.022 -2.34441,0 -4.07943,-0.766 -5.20508,-2.2979 -0.88867,-1.2272 -1.33301,-2.776 -1.33301,-4.6465 0,-2.2343 0.58399,-3.9842 1.75196,-5.2495 1.16796,-1.2653 2.64485,-1.8979 4.43066,-1.8979 2.00585,0 3.58853,0.6623 4.74805,1.9868 1.15949,1.3245 1.71385,3.3537 1.66308,6.0874 l -8.9375,0 c 0.0254,1.0579 0.31315,1.881 0.86329,2.4692 0.55012,0.5882 1.23567,0.8824 2.05664,0.8824 0.55858,0 1.02831,-0.1524 1.40918,-0.4571 0.38085,-0.3047 0.66861,-0.7955 0.86328,-1.4726 z m 0.20312,-3.6055 c -0.0254,-1.0325 -0.292,-1.8175 -0.7998,-2.355 -0.50782,-0.5374 -1.12566,-0.8061 -1.85352,-0.8061 -0.77865,0 -1.42188,0.2835 -1.92969,0.8506 -0.50781,0.567 -0.75749,1.3372 -0.74902,2.3105 z"
         style="font-size:26px;font-style:normal;font-variant:normal;font-weight:bold;font-stretch:normal;text-align:center;line-height:100%;writing-mode:lr-tb;text-anchor:middle;font-family:Arial;-inkscape-font-specification:Arial Bold"
         id="path3092" />
      <path
         d="m 270.80859,1018.8798 0,2.8437 -2.4375,0 0,5.4336 c 0,1.1003 0.0233,1.7414 0.0698,1.9233 0.0465,0.182 0.15234,0.3322 0.31738,0.4507 0.16503,0.1185 0.36604,0.1778 0.60303,0.1778 0.33007,0 0.80826,-0.1143 1.43457,-0.3428 l 0.30469,2.7676 c -0.82944,0.3554 -1.76889,0.5332 -2.81836,0.5332 -0.64324,0 -1.22299,-0.1079 -1.73926,-0.3238 -0.51628,-0.2158 -0.89502,-0.4951 -1.13623,-0.8379 -0.24122,-0.3427 -0.40837,-0.8061 -0.50147,-1.3901 -0.0762,-0.4147 -0.11426,-1.2526 -0.11425,-2.5137 l 0,-5.8779 -1.6377,0 0,-2.8437 1.6377,0 0,-2.6788 3.58007,-2.082 0,4.7608 z"
         style="font-size:26px;font-style:normal;font-variant:normal;font-weight:bold;font-stretch:normal;text-align:center;line-height:100%;writing-mode:lr-tb;text-anchor:middle;font-family:Arial;-inkscape-font-specification:Arial Bold"
         id="path3094" />
    </g>
  </g>
</svg>
